<?xml version="1.0" encoding="utf-8"?>
<!-- Generator: Adobe Illustrator 16.0.0, SVG Export Plug-In . SVG Version: 6.00 Build 0)  -->
<!DOCTYPE svg PUBLIC "-//W3C//DTD SVG 1.1//EN" "http://www.w3.org/Graphics/SVG/1.1/DTD/svg11.dtd">
<svg version="1.1" id="Layer_1" xmlns="http://www.w3.org/2000/svg" xmlns:xlink="http://www.w3.org/1999/xlink" x="0px" y="0px"
	 width="391px" height="170px" viewBox="0 0 391 170" enable-background="new 0 0 391 170" xml:space="preserve">
<symbol  id="Named_Logo" viewBox="-194 -81.387 389.889 162.775">
	<path d="M-101.289-28.703c-33.125-35.761-70.78-54.748-84.102-42.405c-13.324,12.34,2.729,51.336,35.855,87.097
		c33.125,35.761,70.779,54.746,84.103,42.403c1.734-1.606,2.965-3.667,3.731-6.109c0.59,11.526-2.192,20.518-8.734,25.352
		c-18.209,13.455-58.652-10.396-90.333-53.271s-42.601-88.54-24.392-101.995c18.209-13.455,58.652,10.396,90.333,53.271
		c4.907,6.64,9.314,13.347,13.193,19.992C-87.225-12.417-93.822-20.642-101.289-28.703z"/>
	<path d="M-125.019-6.88c12.723-11.966,9.428-36.136-7.36-53.987c-16.788-17.849-40.709-22.62-53.432-10.655
		c-12.724,11.965-9.427,36.136,7.36,53.987C-161.663,0.314-137.741,5.085-125.019-6.88z"/>
	<text transform="matrix(1 0 0 -1 -97.7056 5.4473)" font-family="'Verdana'" font-size="43.6248">Kevin Attfield</text>
	<text transform="matrix(1 0 0 -1 -61.6245 -27.0151)" font-family="'Verdana'" font-size="33.0508">Photography</text>
	<polygon display="none" fill="none" points="-194,81 194,81 194,-81 -194,-81 	"/>
</symbol>
<g>
	<g opacity="0.43">
		<path fill="#666600" d="M96.711,115.703c-33.125,35.761-70.78,54.748-84.102,42.405c-13.324-12.34,2.729-51.336,35.855-87.097
			c33.125-35.761,70.779-54.746,84.103-42.403c1.734,1.606,2.965,3.667,3.731,6.109c0.59-11.526-2.192-20.518-8.734-25.352
			C109.355-4.088,68.912,19.762,37.231,62.638s-42.601,88.54-24.392,101.995c18.209,13.455,58.652-10.396,90.333-53.271
			c4.907-6.64,9.314-13.347,13.193-19.992C110.775,99.417,104.178,107.642,96.711,115.703z"/>
		
			<ellipse transform="matrix(0.6851 -0.7285 0.7285 0.6851 -78.5223 70.7653)" fill="#666600" cx="42.585" cy="126.201" rx="44.369" ry="31.624"/>
		<path fill="#666600" d="M130.052,82h-5.475l-12.486-14.346L109,70.795V82h-4V50h4v16.386L124.28,50h5.112l-14.166,15.052
			L130.052,82z"/>
		<path fill="#666600" d="M154,70h-17.152c0,2,0.22,2.773,0.66,3.859c0.44,1.086,1.044,1.995,1.811,2.691
			c0.738,0.682,1.615,1.202,2.631,1.542c1.015,0.341,2.133,0.516,3.355,0.516c1.619,0,3.248-0.189,4.889-0.836
			c1.64-0.646,2.808-1.773,3.504-1.773H154v4.104c-1,0.568-2.771,1.043-4.178,1.427c-1.405,0.384-2.905,0.575-4.453,0.575
			c-3.948,0-7.041-1.068-9.256-3.206s-3.329-5.173-3.329-9.106c0-3.891,1.059-6.979,3.182-9.266
			c2.123-2.286,4.916-3.429,8.381-3.429c3.209,0,5.494,0.937,7.233,2.812c1.739,1.875,2.419,4.537,2.419,7.988V70z M150.48,67
			c-0.014-2-0.543-3.726-1.587-4.876c-1.043-1.15-2.63-1.724-4.761-1.724c-2.145,0-3.852,0.63-5.123,1.894
			c-1.271,1.264-1.991,2.706-2.162,4.706H150.48z"/>
		<path fill="#666600" d="M181.026,58l-9.628,24h-4.026l-9.564-24h4.346l7.37,18.937L176.83,58H181.026z"/>
		<path fill="#666600" d="M191,54h-5v-4h5V54z M190,82h-4V58h4V82z"/>
		<path fill="#666600" d="M218,82h-4V68.005c0-1.094,0-2.12-0.128-3.078s-0.33-1.708-0.671-2.248
			c-0.355-0.596-0.851-1.04-1.518-1.331s-1.525-0.437-2.59-0.437c-1.094,0-2.354,0.27-3.546,0.809
			c-1.193,0.54-2.546,1.229-3.546,2.066V82h-4V58h4v2.401c1-1.037,2.663-1.846,3.998-2.429c1.334-0.582,2.765-0.873,4.171-0.873
			c2.57,0,4.494,0.774,5.844,2.322c1.349,1.548,1.987,3.777,1.987,6.688V82z"/>
		<path fill="#666600" d="M266.508,82h-4.495l-3.11-9h-13.718l-3.11,9h-4.282l11.545-32h5.624L266.508,82z M257.604,69l-5.56-15.571
			L246.463,69H257.604z"/>
		<path fill="#666600" d="M283,81.34c0,0.199-1.395,0.362-2.282,0.49s-1.59,0.192-2.286,0.192c-2.428,0-4.273-0.653-5.537-1.96
			c-1.264-1.306-1.895-3.401-1.895-6.284V61h-3v-3h3v-7h4v7h8v3h-8v10.967c0,1.25,0.074,2.226,0.131,2.929
			c0.057,0.703,0.279,1.36,0.62,1.971c0.312,0.568,0.753,0.983,1.3,1.246c0.546,0.263,1.387,0.394,2.509,0.394
			c0.653,0,1.337,0.034,2.048-0.157c0.71-0.192,1.224-0.35,1.537-0.35H283V81.34z"/>
		<path fill="#666600" d="M301,81.34c-1,0.199-1.799,0.362-2.687,0.49s-1.792,0.192-2.488,0.192c-2.428,0-4.47-0.653-5.733-1.96
			c-1.264-1.306-2.091-3.401-2.091-6.284V61h-2v-3h2v-7h4v7h9v3h-9v10.967c0,1.25,0.169,2.226,0.226,2.929
			c0.057,0.703,0.327,1.36,0.667,1.971c0.312,0.568,0.777,0.983,1.324,1.246c0.546,0.263,1.398,0.394,2.521,0.394
			c0.653,0,1.343,0.034,2.054-0.157c0.71-0.192,1.23-0.35,1.542-0.35H301V81.34z"/>
		<path fill="#666600" d="M318,52h-0.029c-0.44,0-1.016-0.116-1.726-0.252c-0.71-0.135-1.335-0.131-1.875-0.131
			c-1.718,0-3.2,0.416-3.975,1.175c-0.773,0.76-1.396,2.169-1.396,4.157V58h8v3h-7v21h-4V61h-3v-3h3v-1.029
			c0-2.826,0.5-4.995,1.906-6.507c1.406-1.513,3.335-2.269,5.991-2.269c0.895,0,1.558,0.043,2.275,0.128
			c0.717,0.085,1.828,0.185,1.828,0.298V52z"/>
		<path fill="#666600" d="M325,54h-4v-4h4V54z M325,82h-4V58h4V82z"/>
		<path fill="#666600" d="M353,70h-17.924c0,2,0.22,2.773,0.66,3.859c0.44,1.086,1.044,1.995,1.811,2.691
			c0.738,0.682,1.615,1.202,2.631,1.542c1.015,0.341,2.133,0.516,3.355,0.516c1.619,0,3.248-0.189,4.889-0.836
			c1.64-0.646,2.808-1.773,3.504-1.773H352v4.104c-1,0.568-2.657,1.043-4.063,1.427c-1.405,0.384-2.848,0.575-4.396,0.575
			c-3.948,0-7.012-1.068-9.227-3.206s-3.315-5.173-3.315-9.106c0-3.891,1.066-6.979,3.189-9.266
			c2.123-2.286,4.919-3.429,8.385-3.429c3.209,0,5.881,0.937,7.621,2.812c1.739,1.875,2.807,4.537,2.807,7.988V70z M348.708,67
			c-0.014-2-0.543-3.726-1.587-4.876c-1.043-1.15-2.63-1.724-4.761-1.724c-2.145,0-3.852,0.63-5.123,1.894
			c-1.271,1.264-1.991,2.706-2.162,4.706H348.708z"/>
		<path fill="#666600" d="M363,82h-4V48h4V82z"/>
		<path fill="#666600" d="M390,82h-4v-2.939c-1,0.994-2.379,1.768-3.628,2.322c-1.25,0.554-2.621,0.831-4.083,0.831
			c-2.84,0-5.102-1.093-6.771-3.28c-1.668-2.187-2.506-5.219-2.506-9.096c0-2.016,0.286-3.813,0.861-5.389s1.352-2.918,2.332-4.026
			c0.966-1.079,2.09-1.903,3.376-2.471c1.285-0.568,2.616-0.852,3.993-0.852c1.25,0,2.386,0.131,3.352,0.394S385,58.164,386,58.718
			V48h4V82z M386,75.695V62.041c-1-0.483-2.073-0.816-2.925-1.001c-0.853-0.184-1.797-0.277-2.805-0.277
			c-2.244,0-3.998,0.781-5.247,2.343c-1.25,1.563-1.878,3.777-1.878,6.646c0,2.826,0.481,4.974,1.447,6.443s2.513,2.205,4.643,2.205
			c1.136,0,2.314-0.252,3.479-0.756C383.877,77.14,385,76.49,386,75.695z"/>
		<path fill="#666600" d="M155.322,97.248c0,1.065-0.186,2.052-0.557,2.961c-0.371,0.909-0.89,1.697-1.557,2.364
			c-0.829,0.829-1.808,1.42-2.937,1.834c-1.13,0.415-2.556,0.592-4.277,0.592H143v9h-3V90h6.123c1.441,0,2.663,0.114,3.663,0.356
			s1.888,0.618,2.663,1.134c0.914,0.613,1.622,1.375,2.122,2.29C155.071,94.694,155.322,95.849,155.322,97.248z M151.997,97.328
			c0-0.828-0.145-1.549-0.436-2.162s-0.732-1.114-1.323-1.501c-0.517-0.333-1.105-0.438-1.767-0.583
			c-0.662-0.145-1.499-0.082-2.51-0.082H143v9h2.494c1.291,0,2.34,0.05,3.147-0.181c0.807-0.231,1.463-0.517,1.969-1.023
			c0.505-0.517,0.863-1.018,1.073-1.588C151.892,98.637,151.997,98.039,151.997,97.328z"/>
		<path fill="#666600" d="M174,114h-3v-10.249c0-0.829,0.117-1.606,0.021-2.332s-0.192-1.293-0.45-1.703
			c-0.269-0.452-0.615-0.788-1.121-1.009c-0.506-0.22-1.141-0.331-1.948-0.331c-0.829,0-1.847,0.205-2.751,0.613
			s-1.75,0.931-2.75,1.565V114h-3V89h3v8.99c1-0.786,2.089-1.399,3.1-1.84c1.012-0.441,2.131-0.662,3.196-0.662
			c1.947,0,3.29,0.586,4.313,1.759c1.022,1.173,1.392,2.862,1.392,5.067V114z"/>
		<path fill="#666600" d="M195.57,105.01c0,2.937-0.753,5.255-2.259,6.956c-1.506,1.7-3.524,2.55-6.052,2.55
			c-2.55,0-4.575-0.85-6.076-2.55c-1.501-1.7-2.251-4.019-2.251-6.956c0-2.938,0.75-5.258,2.251-6.964
			c1.501-1.705,3.526-2.558,6.076-2.558c2.528,0,4.545,0.853,6.052,2.558C194.817,99.752,195.57,102.073,195.57,105.01z
			 M192.439,105.01c0-2.334-0.458-4.069-1.372-5.205c-0.915-1.135-2.185-1.703-3.809-1.703c-1.646,0-2.924,0.567-3.833,1.703
			s-1.364,2.87-1.364,5.205c0,2.259,0.458,3.973,1.372,5.14c0.914,1.167,2.189,1.751,3.825,1.751c1.614,0,2.88-0.578,3.8-1.735
			C191.979,109.01,192.439,107.291,192.439,105.01z"/>
		<path fill="#666600" d="M210,113.854c-1,0.151-1.379,0.274-2.051,0.372c-0.673,0.097-1.366,0.145-1.893,0.145
			c-1.839,0-3.45-0.495-4.408-1.485c-0.958-0.989-1.648-2.576-1.648-4.761V99h-2v-3h2v-5h3v5h7v3h-7v7.753
			c0,0.947,0.204,1.687,0.247,2.219c0.043,0.532,0.285,1.03,0.543,1.493c0.236,0.43,0.608,0.745,1.022,0.944
			c0.414,0.199,1.069,0.299,1.919,0.299c0.495,0,1.023-0.136,1.561-0.281c0.538-0.146,0.936-0.427,1.173-0.427H210V113.854z"/>
		<path fill="#666600" d="M228.653,105.01c0,2.937-0.753,5.255-2.259,6.956c-1.506,1.7-3.524,2.55-6.052,2.55
			c-2.55,0-4.575-0.85-6.076-2.55c-1.501-1.7-2.251-4.019-2.251-6.956c0-2.938,0.75-5.258,2.251-6.964
			c1.501-1.705,3.526-2.558,6.076-2.558c2.528,0,4.545,0.853,6.052,2.558C227.9,99.752,228.653,102.073,228.653,105.01z
			 M225.522,105.01c0-2.334-0.458-4.069-1.372-5.205c-0.915-1.135-2.185-1.703-3.809-1.703c-1.646,0-2.924,0.567-3.833,1.703
			s-1.364,2.87-1.364,5.205c0,2.259,0.458,3.973,1.372,5.14c0.914,1.167,2.189,1.751,3.825,1.751c1.614,0,2.88-0.578,3.8-1.735
			C225.063,109.01,225.522,107.291,225.522,105.01z"/>
		<path fill="#666600" d="M248,111.966c0,3.055-0.709,5.298-2.097,6.729c-1.388,1.431-3.531,2.146-6.414,2.146
			c-0.958,0-1.892-0.067-2.801-0.202c-0.909-0.134-1.688-0.325-2.688-0.573V117h0.156c0.495,0,1.28,0.417,2.356,0.702
			s2.152,0.42,3.228,0.42c1.033,0,1.888-0.128,2.566-0.375c0.678-0.248,1.205-0.594,1.582-1.035
			c0.376-0.419,0.677-0.926,0.838-1.518c0.162-0.592,0.274-1.254,0.274-1.986v-1.646c-1,0.732-1.821,1.278-2.654,1.638
			c-0.834,0.36-1.912,0.541-3.203,0.541c-2.152,0-3.868-0.777-5.132-2.332c-1.264-1.554-1.9-3.747-1.9-6.576
			c0-1.549,0.216-2.886,0.652-4.01c0.436-1.124,1.029-2.095,1.782-2.913c0.699-0.764,1.549-1.358,2.549-1.783
			c1-0.425,1.995-0.637,2.985-0.637c1.044,0,1.917,0.105,2.622,0.314c0.705,0.21,1.45,0.536,2.235,0.966L245.13,96H248V111.966z
			 M245,109.061v-9.828c-1-0.365-1.589-0.626-2.283-0.783c-0.694-0.156-1.401-0.234-2.09-0.234c-1.667,0-2.988,0.56-3.945,1.679
			c-0.958,1.119-1.44,2.743-1.44,4.874c0,2.023,0.353,3.556,1.063,4.599c0.71,1.044,1.887,1.565,3.533,1.565
			c0.882,0,1.798-0.169,2.686-0.508C243.411,110.085,244,109.631,245,109.061z"/>
		<path fill="#666600" d="M265,99h0.028c-0.452,0-0.89-0.037-1.315-0.086c-0.425-0.048-0.928,0.002-1.509,0.002
			c-0.936,0-1.827,0.244-2.699,0.658c-0.872,0.415-1.505,0.987-2.505,1.643V114h-3V96h3v2.652c1-0.968,2.255-1.654,3.175-2.058
			c0.92-0.404,1.853-0.605,2.811-0.605c0.526,0,0.811,0.014,1.047,0.041c0.237,0.027,0.967,0.078,0.967,0.153V99z"/>
		<path fill="#666600" d="M282,114h-3v-1.905c0,0.183-0.614,0.438-1.071,0.767c-0.458,0.328-0.893,0.589-1.322,0.783
			c-0.506,0.248-1.082,0.454-1.738,0.621s-1.424,0.25-2.306,0.25c-1.625,0-3-0.538-4.13-1.614c-1.13-1.076-1.694-2.447-1.694-4.115
			c0-1.366,0.293-2.472,0.88-3.316c0.586-0.845,1.423-1.509,2.51-1.993c1.097-0.484,2.397-0.813,3.936-0.984
			s2.937-0.301,4.937-0.387v-0.468c0-0.688-0.103-1.259-0.345-1.71c-0.242-0.452-0.58-0.807-1.032-1.065
			c-0.431-0.247-0.942-0.414-1.544-0.5c-0.603-0.086-1.23-0.129-1.886-0.129c-0.796,0-1.683-0.125-2.662,0.085
			S269.542,99,268.498,99H268v-2.624c1-0.161,1.615-0.339,2.734-0.532c1.119-0.194,2.306-0.291,3.393-0.291
			c1.269,0,2.417,0.105,3.358,0.314c0.941,0.21,1.777,0.568,2.466,1.073c0.678,0.495,1.178,1.135,1.533,1.92
			c0.354,0.786,0.516,1.759,0.516,2.921V114z M279,109.577v-5.019c-1,0.054-1.997,0.135-3.25,0.242
			c-1.253,0.108-2.237,0.264-2.969,0.468c-0.871,0.248-1.571,0.632-2.109,1.154c-0.538,0.522-0.805,1.24-0.805,2.154
			c0,1.033,0.313,1.81,0.938,2.332s1.577,0.783,2.857,0.783c1.065,0,2.021-0.207,2.903-0.622
			C277.447,110.656,278,110.158,279,109.577z"/>
		<path fill="#666600" d="M303.76,104.784c0,1.463-0.209,2.8-0.629,4.01c-0.419,1.21-1.011,2.235-1.775,3.074
			c-0.71,0.796-1.547,1.412-2.51,1.848c-0.963,0.436-1.982,0.653-3.058,0.653c-0.936,0-1.749-0.103-2.506-0.307
			c-0.759-0.204-1.281-0.521-2.281-0.952V121h-3V96h3v1.877c1-0.678,1.678-1.245,2.685-1.703c1.006-0.457,2.062-0.686,3.202-0.686
			c2.173,0,3.856,0.82,5.066,2.461S303.76,101.869,303.76,104.784z M300.629,104.865c0-2.173-0.371-3.798-1.113-4.874
			s-1.883-1.614-3.421-1.614c-0.872,0-1.713,0.188-2.595,0.565c-0.883,0.376-1.499,0.871-2.499,1.484v10.215
			c1,0.388,1.565,0.651,2.184,0.791c0.619,0.14,1.304,0.21,2.089,0.21c1.689,0,2.998-0.57,3.945-1.711
			C300.165,108.792,300.629,107.103,300.629,104.865z"/>
		<path fill="#666600" d="M324,114h-3v-10.249c0-0.829-0.285-1.606-0.382-2.332s-0.393-1.293-0.651-1.703
			c-0.269-0.452-0.715-0.788-1.221-1.009c-0.506-0.22-1.191-0.331-1.999-0.331c-0.829,0-1.47,0.205-2.374,0.613
			S312,99.921,312,100.556V114h-4V89h4v8.99c0-0.786,1.687-1.399,2.698-1.84c1.011-0.441,1.93-0.662,2.995-0.662
			c1.947,0,3.591,0.586,4.614,1.759c1.022,1.173,1.693,2.862,1.693,5.067V114z"/>
		<path fill="#666600" d="M344.992,96l-10.522,25h-3.244l3.357-7.683L327.402,96h3.292l5.536,13.362L341.813,96H344.992z"/>
	</g>
	<g>
		
			<use xlink:href="#Named_Logo"  width="389.889" height="162.775" x="-194" y="-81.387" transform="matrix(1 0 0 -1 196 84)" overflow="visible"/>
	</g>
</g>
</svg>
